inDegrees=yes
name=ik_S47_A04_T02
DataType=double
version=3
OpenSimVersion=4.3-2021-08-27-4bc7ad9
endheader
time	pelvis_tilt	pelvis_list	pelvis_rotation	pelvis_tx	pelvis_ty	pelvis_tz	hip_flexion_r	hip_adduction_r	hip_rotation_r	knee_angle_r	knee_angle_r_beta	ankle_angle_r	subtalar_angle_r	mtp_angle_r	hip_flexion_l	hip_adduction_l	hip_rotation_l	knee_angle_l	knee_angle_l_beta	ankle_angle_l	subtalar_angle_l	mtp_angle_l	lumbar_extension	lumbar_bending	lumbar_rotation	arm_flex_r	arm_add_r	arm_rot_r	elbow_flex_r	pro_sup_r	wrist_flex_r	wrist_dev_r	arm_flex_l	arm_add_l	arm_rot_l	elbow_flex_l	pro_sup_l	wrist_flex_l	wrist_dev_l
4.979999999999982	24.01150412695824	11.63780878010028	30.07601602996817	0	0.9399999999999999	0	38.9492547611161	-16.13204948620817	3.493553251849983	73.07579592689072	1.275413242439704	0	0	0	46.60460264331905	-17.11191937915187	11.75332941738717	78.71954641064931	1.373915270542315	0	0	0	0	0	0	22.76355807626976	-22.76355807626978	3.580077833771453	67.1290853570427	86.4199223705175	0	0	22.76355807626976	-22.76355807626978	3.580077833771453	67.1290853570427	86.41992237025225	0	0
4.999999999999981	24.01988028643098	11.6567164821989	30.05976660234247	0	0.9399999999999999	0	38.94195558102191	-16.17818479096609	3.461333311226677	73.10077442262697	1.275849199432497	0	0	0	46.56433142520505	-17.13507739602202	11.7867182947343	78.77165138811674	1.374824673955799	0	0	0	0	0	0	22.81631932898535	-22.81631932898538	3.58664074642411	67.21452073861653	86.4133594582202	0	0	22.81631932898535	-22.81631932898538	3.58664074642411	67.21452073861653	86.41335945795619	0	0
5.019999999999981	24.00599841760449	11.65114455709188	30.06402069658687	0	0.9399999999999999	0	38.91351679780808	-16.25133120391671	3.430900198499336	73.07484399911753	1.275396628165821	0	0	0	46.56675934726242	-17.12657561865207	11.84464478210555	78.77387719813227	1.374863521669094	0	0	0	0	0	0	22.87509505512633	-22.87509505512635	3.59393556754602	67.30943612450835	86.40606463749306	0	0	22.87509505512633	-22.87509505512635	3.59393556754602	67.30943612450835	86.40606463723044	0	0
5.03999999999998	23.96089676568114	11.63002347522864	30.05215113753764	0	0.9399999999999999	0	38.98249167437189	-16.29867787271635	3.450298195112433	73.07980404710879	1.275483197334326	0	0	0	46.5977750379668	-17.12981986824707	11.86183383876663	78.78498429267417	1.37505737703918	0	0	0	0	0	0	22.93268968400499	-22.93268968400502	3.601069119684519	67.40221161282676	86.39893108574047	0	0	22.93268968400499	-22.93268968400502	3.601069119684519	67.40221161282676	86.39893108547921	0	0
5.05999999999998	23.91358917566227	11.61193583113547	30.04531986095106	0	0.9399999999999999	0	39.01954784295027	-16.32823974407477	3.432269054045553	73.08243732135264	1.275529156639989	0	0	0	46.6606878886362	-17.12701079056911	11.86073111765907	78.83924231495573	1.376004358173614	0	0	0	0	0	0	22.98707197966227	-22.98707197966229	3.607786848706977	67.48952679431962	86.39221335708126	0	0	22.98707197966227	-22.98707197966229	3.607786848706977	67.48952679431962	86.39221335682124	0	0
5.07999999999998	23.74565559673793	11.5525362985982	30.03524284845104	0	0.9399999999999999	0	39.19224045016092	-16.32710596213066	3.437421677633795	73.07203109941543	1.275347533804491	0	0	0	46.80414704965471	-17.09537881214285	11.82349825415052	78.82663083915234	1.375784246397309	0	0	0	0	0	0	22.98865653568686	-22.98865653568688	3.607982076537893	67.49206555523001	86.39201812926093	0	0	22.98865653568686	-22.98865653568688	3.607982076537893	67.49206555523001	86.39201812900095	0	0
5.099999999999979	23.65649727247429	11.51127850181532	30.08382872390744	0	0.9399999999999999	0	39.27793781527203	-16.30211284478762	3.409514521607948	73.07828395157445	1.275456666662306	0	0	0	46.89830603585445	-17.05984285484969	11.85401422832581	78.79131816409446	1.375167923949862	0	0	0	0	0	0	23.05141305303099	-23.05141305303101	3.615777451921087	67.59352229299667	86.38422275429966	0	0	23.05141305303099	-23.05141305303101	3.615777451921087	67.59352229299667	86.38422275404128	0	0
5.119999999999979	23.5103428277277	11.44988523499738	30.1309303001205	0	0.9399999999999999	0	39.44469123822746	-16.33460709971781	3.406731861927097	73.0846427012961	1.27556764778126	0	0	0	47.05015104440564	-16.96161386909529	11.90911514975542	78.82232143237194	1.375709033060183	0	0	0	0	0	0	23.10973063286995	-23.10973063286997	3.622936864157227	67.68645300728102	86.37706334245019	0	0	23.10973063286995	-23.10973063286997	3.622936864157227	67.68645300728102	86.37706334219311	0	0
5.139999999999978	23.3584457807359	11.38461346422009	30.19751399799247	0	0.9399999999999999	0	39.60833761302167	-16.20890220695196	3.355396707886522	73.05805803312293	1.275103657791088	0	0	0	47.21886689701052	-16.91457723574052	11.93528193235786	78.76841619517039	1.374768209186948	0	0	0	0	0	0	23.11122609733346	-23.11122609733348	3.623119059810386	67.68881812686834	86.37688114680684	0	0	23.11122609733346	-23.11122609733348	3.623119059810386	67.68881812686834	86.37688114654985	0	0
5.159999999999978	23.21305555023743	11.31349922563283	30.28744728463592	0	0.9399999999999999	0	39.74772818887374	-16.13911515421293	3.298108201196009	73.00112773489865	1.274110036642931	0	0	0	47.39584983169837	-16.75476786507253	12.02220546829845	78.69247623940797	1.373442806925075	0	0	0	0	0	0	23.17945737381342	-23.17945737381344	3.631571150509258	67.79875647279549	86.36842905656532	0	0	23.17945737381342	-23.17945737381344	3.631571150509258	67.79875647279549	86.36842905630988	0	0
5.179999999999978	23.0401626163487	11.24091534497614	30.37395273640654	0	0.9399999999999999	0	39.93971853603378	-16.06035736247545	3.253535980115514	72.92127922934027	1.272716417318141	0	0	0	47.59549656525103	-16.64397022945476	12.02743231618321	78.64574073862558	1.372627118558853	0	0	0	0	0	0	23.18131618413689	-23.18131618413691	3.631795537066507	67.8016655305406	86.36820467002011	0	0	23.18131618413689	-23.18131618413691	3.631795537066507	67.8016655305406	86.36820466976482	0	0
5.199999999999977	22.84125141558679	11.12455478475961	30.45477515917914	0	0.9399999999999999	0	40.13404504123203	-15.98263857073164	3.169751380797761	72.79677978790812	1.270543492148256	0	0	0	47.84072582438647	-16.56433193961686	12.05848508347165	78.56486620186574	1.371215591611369	0	0	0	0	0	0	23.252108955608	-23.25210895560803	3.640589474393342	67.91611567365628	86.35941073316923	0	0	23.252108955608	-23.25210895560803	3.640589474393342	67.91611567365628	86.35941073291561	0	0
5.219999999999977	22.63157835070141	11.03858647561337	30.54643439434702	0	0.9399999999999999	0	40.3501532500688	-15.94874860385348	3.108015062875921	72.73684625311513	1.26949745463376	0	0	0	48.09193695486022	-16.48404959661178	11.94417797301591	78.51443439936691	1.370335390610049	0	0	0	0	0	0	23.25415977518447	-23.25415977518449	3.640838247635411	67.91934137378394	86.35916195994059	0	0	23.25415977518447	-23.25415977518449	3.640838247635411	67.91934137378394	86.35916195968701	0	0
5.239999999999976	22.42883743247358	10.94801725722722	30.63098078898065	0	0.9399999999999999	0	40.53620994525655	-15.92901773510667	3.008441240279372	72.70618444823404	1.268962305183981	2.141704293411519e-35	0	0	48.31358580437325	-16.43581138851506	11.94049538478152	78.45453727852848	1.369289988638953	2.141704293411519e-35	0	0	0	0	0	23.25585055998504	-23.25585055998507	3.641040054790205	67.92195375521172	86.35896015279675	0	-2.141661090188646e-35	23.25585055998504	-23.25585055998507	3.641040054790205	67.92195375521172	86.35896015254316	0	-2.141661090188646e-35
5.259999999999976	22.25776966284709	10.86245429214143	30.74120374712504	0	0.9399999999999999	0	40.68430132579594	-15.90456085275115	2.897925816444036	72.66198058967076	1.268190802309966	0	0	0	48.48442022722163	-16.44805901694835	11.69993040276712	78.39560427172181	1.368261413632077	0	0	0	0	0	0	23.25697226407697	-23.256972264077	3.641176620440307	67.92372513998146	86.35882358715403	0	0	23.25697226407697	-23.256972264077	3.641176620440307	67.92372513998146	86.35882358690047	0	0
5.279999999999975	22.18740254291769	10.88553487659578	30.72634933158253	0	0.9399999999999999	0	40.75050330465264	-15.93884661037493	2.978051199087396	72.52162885611565	1.265741202448547	0	0	0	48.48122535167252	-16.44304720973604	11.59177457369529	78.1721470682256	1.364361349693769	0	0	0	0	0	0	23.33094255885013	-23.33094255885015	3.650222045312907	68.04106555183813	86.34977816276948	0	0	23.33094255885013	-23.33094255885015	3.650222045312907	68.04106555183813	86.34977816251759	0	0
5.299999999999975	21.70573163899462	10.57927019501375	30.96312963271046	0	0.9399999999999999	0	41.19415959245276	-15.91780107383476	2.739813314242651	72.50333741486453	1.26542195657378	0	0	0	49.07404034497412	-16.36753578970177	11.58328733014217	78.18447665819023	1.364576541634073	0	0	0	0	0	0	23.33298537869682	-23.33298537869684	3.650468182585764	68.0442537687541	86.34953202550987	0	0	23.33298537869682	-23.33298537869684	3.650468182585764	68.0442537687541	86.34953202525801	0	0
5.319999999999975	21.59242692004955	10.50573118603075	31.02863466297043	0	0.9399999999999999	0	41.23937685068134	-15.85521397818847	2.650550304937098	72.48665983708501	1.26513087793027	0	0	0	49.1753237613957	-16.36392978895882	11.43981050531264	78.19809626144179	1.364814248553628	0	0	0	0	0	0	23.33394830828163	-23.33394830828165	3.650584740495336	68.04576422174959	86.34941546760659	0	0	23.33394830828163	-23.33394830828165	3.650584740495336	68.04576422174959	86.34941546735473	0	0
5.339999999999974	21.11503596404398	10.21115069954554	31.26289551025336	0	0.9399999999999999	0	41.66017722549655	-15.82257442100162	2.493175878009587	72.39261013521147	1.263489400972057	0	0	0	49.7048699429716	-16.28198762733581	11.40480747993127	78.16637876061719	1.364260673733734	0	0	0	0	0	0	23.33557050019689	-23.33557050019691	3.650780634607282	68.04830216915767	86.34921957350522	0	0	23.33557050019689	-23.33557050019691	3.650780634607282	68.04830216915767	86.34921957325344	0	0
5.359999999999974	20.9467582308546	10.0747311105716	31.31487852925691	0	0.9399999999999999	0	41.75302628379217	-15.71452114010052	2.447934611870075	72.3030714283187	1.2619266557288	0	0	0	49.90871665319292	-16.28306616219231	11.47662717325649	78.20216393787425	1.36488524290028	0	0	0	0	0	0	23.33772312281114	-23.33772312281116	3.651041944309304	68.05168936928041	86.34895826381728	0	0	23.33772312281114	-23.33772312281116	3.651041944309304	68.05168936928041	86.34895826356554	0	0
5.379999999999973	20.39917927963834	9.621484964824736	31.56515674688016	0	0.9399999999999999	0	42.21988993244088	-15.56255908886782	2.265198871149443	72.3003551009085	1.26187924687193	0	0	0	50.59058656552684	-16.2285560047545	11.75872103194064	78.1630923109138	1.364203314365709	0	0	0	0	0	0	23.33949970416025	-23.33949970416027	3.651256539078291	68.05446963079245	86.34874366905986	0	0	23.33949970416025	-23.33949970416027	3.651256539078291	68.05446963079245	86.34874366880814	0	0
5.399999999999973	19.9783808122337	9.239916443578016	31.82328041157366	0	0.9399999999999999	0	42.55394740092222	-15.57350310142831	2.282636147997377	72.27287972109781	1.261399711030998	0	0	0	51.07653569250861	-16.11737388192782	11.94177344086627	78.13828889398637	1.36377041307458	0	0	0	0	0	0	23.34122213738014	-23.34122213738016	3.651465638074001	68.05718002170016	86.34853457007543	0	0	23.34122213738014	-23.34122213738016	3.651465638074001	68.05718002170016	86.34853456982377	0	0
